<?xml version="1.0" encoding="UTF-8"?>
<svg id="Capa_1" data-name="Capa 1" xmlns="http://www.w3.org/2000/svg" viewBox="0 0 870 580">
  <defs>
    <style>
      .cls-1 {
        fill: #fff;
      }

      .cls-2 {
        fill: #598aeb;
      }

      .cls-3 {
        fill: #f5f5f5;
      }

      .cls-4 {
        fill: #455a64;
      }

      .cls-5 {
        fill: #e0e0e0;
      }

      .cls-6 {
        opacity: .3;
      }

      .cls-7 {
        fill: #eb996e;
      }

      .cls-8 {
        opacity: .6;
      }

      .cls-9 {
        fill: #ffbe9d;
      }

      .cls-10 {
        fill: #263238;
      }
    </style>
  </defs>
  <g id="freepik--background-complete--inject-2">
    <polygon class="cls-3" points="11.94 477 11.94 527.73 86.12 527.73 167.94 527.73 167.94 477 11.94 477"/>
    <polygon class="cls-5" points="5.4 462.82 5.4 477 173.39 477 173.39 462.82 86.12 462.82 5.4 462.82"/>
    <polygon class="cls-5" points="89.39 527.73 167.94 527.73 167.94 477 173.39 477 173.39 462.82 86.12 462.82 86.12 475.69 89.39 527.73"/>
    <rect class="cls-5" x="33.77" y="485.18" width="31.64" height="7.63"/>
    <rect class="cls-1" x="29.69" y="502.36" width="40.62" height="16.13"/>
    <polygon class="cls-3" points="35.95 412.16 35.95 462.88 110.12 462.88 191.93 462.88 191.93 412.16 35.95 412.16"/>
    <polygon class="cls-5" points="29.39 397.98 29.39 412.16 197.39 412.16 197.39 397.98 110.12 397.98 29.39 397.98"/>
    <polygon class="cls-5" points="113.39 462.88 191.93 462.88 191.93 412.16 197.39 412.16 197.39 397.98 110.12 397.98 110.12 410.85 113.39 462.88"/>
    <rect class="cls-5" x="57.76" y="420.34" width="31.64" height="7.63"/>
    <rect class="cls-1" x="53.68" y="437.53" width="40.62" height="16.13"/>
    <rect class="cls-5" x="16.38" y="25.8" width="115.49" height="167.4"/>
    <rect class="cls-3" x="10.58" y="25.8" width="115.49" height="167.4"/>
    <rect class="cls-1" x="24.93" y="43.94" width="86.79" height="131.14"/>
    <path class="cls-5" d="m111.73,175.07v-9.7c0-6.28,0-15.45-.07-27.01,0-23.11-.09-55.86-.14-94.42l.28.28H25.02l.31-.31v131.14l-.25-.25,63.17.12,17.45.06h6.17-23.41l-63.33.14h-.25V43.42h87.39v.53c0,38.63-.1,71.45-.14,94.62,0,11.53,0,20.67-.09,26.94v8.97c0,.42-.32.59-.32.59Z"/>
    <path class="cls-5" d="m126.4,25.8c-.6,1.06-1.29,2.06-2.07,3-1.34,1.78-3.25,4.22-5.41,6.86s-4.21,4.95-5.71,6.64c-.75.94-1.58,1.81-2.48,2.6.65-1.02,1.39-1.99,2.2-2.89l5.5-6.74,5.55-6.75c.73-.97,1.54-1.89,2.42-2.73Z"/>
    <path class="cls-1" d="m112.12,174.65c4.31,6.86,9.39,13.21,15.14,18.93"/>
    <path class="cls-5" d="m127.31,193.58c-.97-.7-1.85-1.51-2.64-2.4-4.03-4.11-7.62-8.62-10.74-13.45-.7-.97-1.28-2-1.76-3.1.78.9,1.49,1.85,2.13,2.85,1.24,1.78,3.06,4.24,5.14,6.85s4.09,4.95,5.55,6.53c.84.85,1.61,1.76,2.32,2.73Z"/>
    <path class="cls-1" d="m10.55,193.07l15.12-18.67"/>
    <path class="cls-5" d="m25.69,174.4c-2.27,3.3-4.71,6.48-7.31,9.53-2.45,3.18-5.06,6.23-7.83,9.14,2.27-3.3,4.72-6.48,7.32-9.53,2.44-3.18,5.05-6.23,7.82-9.14Z"/>
    <path class="cls-5" d="m10.55,25.8c2.64,2.79,5.12,5.72,7.43,8.78,2.45,2.92,4.74,5.98,6.85,9.17-2.61-2.79-5.06-5.72-7.35-8.78-2.47-2.93-4.79-5.99-6.94-9.17Z"/>
    <rect class="cls-5" x="55.63" y="70.55" width="29.06" height="82.52"/>
    <path class="cls-3" d="m754.98,509.99c-2.73-2.34-8.82-9.76-4.12-18.39,1.72-3.17,5.39-4.73,8.67-6.13s6.79-2.6,9.54-4.95c5.17-4.4,6.59-11.71,10.02-17.56,3.94-6.74,11.28-11.78,19.05-11.43,8.89.41,16.31,7.67,19.67,15.95,3.36,8.29,3.48,17.48,3.55,26.42,0,4.95-.19,10.52-3.82,13.86-3.34,3.08-8.39,3.12-12.92,2.97l-48.6-1.49"/>
    <path class="cls-5" d="m847.94,376.35h-127.82l23.03,137.28c.97,5.84,5.22,10.6,10.91,12.23l.45.12c.38.09.74.22,1.14.28.86.18,1.73.27,2.6.3v.14l.63-.1h56.98c1.05,0,2.1-.11,3.13-.31,6.83-1.06,12.12-6.55,12.92-13.41l11.15-94.6.5-3.72h-.06l4.38-37.51.06-.71Zm-24.12,87.56h-13.1l1.33-39.83h15.2l-3.42,39.83Zm4.68-39.83h12.56l-4.68,39.83h-11.28l3.41-39.83Zm-37.47,84.01l-.81-34.61h18.89l-1.15,34.61h-16.93Zm-20.43-34.61h18.36l.79,34.61h-16.46l-2.69-34.61Zm1.41,34.61h-15.38c-1.46-9.34-3.37-21.49-5.43-34.61h18.12l2.69,34.61Zm-2.18-44.17l-3.1-39.83h21.06l.92,39.83h-18.88Zm20.14,0l-.92-39.83h21.65l-1.24,39.83h-19.5Zm-1.13-49.4l-.85-36.89h24.28l-1.24,36.89h-22.18Zm-1.24,0h-21.59l-2.86-36.89h23.53l.92,36.89Zm-22.85,0h-22.84c-.81-5.09-1.57-9.91-2.27-14.26-2.38-14.86-3.27-20.52-3.72-22.63h26.01l2.81,36.89Zm.74,9.56l3.1,39.83h-18.89c-.63-4.04-1.24-8.13-1.92-12.21-1.49-9.41-2.96-18.82-4.36-27.62h22.07Zm-17.07,39.83h-12.39l-6.69-39.83h12.75c1.99,12.31,4.2,26.01,6.32,39.83h.01Zm1.51,9.56c1.87,11.98,3.72,23.78,5.41,34.61h-11.84l-5.81-34.61h12.24Zm59.31,34.61l1.15-34.61h12.61l-2.95,34.61h-10.81Zm3.11-93.57l1.24-36.89h17.61l-3.16,36.89h-15.69Zm-77.68-36.89c.51,2.66,2.84,17.18,5.96,36.89h-12.83l-6.19-36.89h13.07Zm96.53,130.45h-9.91l3.03-34.61h10.99l-4.11,34.61Zm10.97-93.57h-12.89l3.15-36.89h14.07l-4.32,36.89Z"/>
    <polygon class="cls-5" points="850.79 34.77 850.79 147.18 689.34 147.18 683.52 35.56 850.79 34.77"/>
    <rect class="cls-1" x="683.52" y="35.56" width="161.45" height="111.38"/>
    <path class="cls-5" d="m845.74,147.71h-162.98V34.79h162.98v112.92Zm-161.45-1.54h159.87V36.33h-159.87v109.84Z"/>
    <rect class="cls-1" x="701.01" y="49.4" width="126.47" height="83.71"/>
    <path class="cls-5" d="m827.48,49.4h-9.36l-26.01.1-91.04.19.36-.37v83.7h0l-.4-.4,126.47.07-.31.32c.06-25.48.12-46.36.16-60.9,0-7.27.06-12.94.09-16.85v-5.96,5.83c0,3.88,0,9.54.07,16.77,0,14.59.1,35.55.17,61.1v.32h-.32l-126.47.07h-.4v-.27h0V49.08h.37l91.28.17,26.01.1h8.62l.71.05Z"/>
    <path class="cls-5" d="m683.52,35.28c1,.48,1.93,1.09,2.77,1.8,1.66,1.24,3.9,2.89,6.33,4.83s4.57,3.78,6.07,5.15c.87.69,1.65,1.48,2.32,2.37-.15.17-4.04-3.03-8.88-6.9s-8.74-7.1-8.61-7.25Z"/>
    <path class="cls-5" d="m844.97,35.56c.14.17-3.72,3.41-8.5,7.23s-8.86,6.78-8.99,6.6,3.72-3.41,8.5-7.23c4.78-3.83,8.86-6.78,8.99-6.6Z"/>
    <path class="cls-1" d="m844.84,146.95l-18.02-14.58"/>
    <path class="cls-5" d="m826.82,132.38c.15-.17,4.29,2.95,9.25,6.97,4.97,4.03,8.89,7.43,8.76,7.61s-4.29-2.95-9.25-6.99-8.88-7.43-8.76-7.59Z"/>
    <path class="cls-5" d="m683.52,146.94c-.14-.17,3.63-3.38,8.41-7.16,4.78-3.78,8.76-6.7,8.89-6.53s-3.62,3.38-8.4,7.16-8.77,6.7-8.91,6.53Z"/>
    <rect class="cls-5" x="726.69" y="75.47" width="79.58" height="28.03"/>
  </g>
  <g id="freepik--Floor--inject-2">
    <path class="cls-10" d="m847.94,527.73c0,.17-186.19.32-415.83.32s-415.86-.15-415.86-.32,186.16-.32,415.86-.32,415.83.14,415.83.32Z"/>
  </g>
  <g id="freepik--Device--inject-2">
    <path class="cls-4" d="m118.54,94.73h630.17c4.61,0,8.35,3.74,8.35,8.35v402.19c0,9.96-8.08,18.03-18.03,18.03H126.99c-9.97,0-18.05-8.08-18.05-18.05h0V104.32c0-5.3,4.3-9.59,9.6-9.59Z"/>
    <path class="cls-4" d="m81.84,491.62h702.19v20.54c0,9.39-7.61,16.99-16.99,16.99H98.83c-9.39,0-16.99-7.61-16.99-16.99v-20.54h0Z"/>
    <rect class="cls-3" x="126.33" y="111.74" width="611.52" height="361.94"/>
    <polygon class="cls-10" points="369.1 491.62 377.82 505.48 500.44 505.48 508.53 491.62 369.1 491.62"/>
    <rect class="cls-10" x="109.04" y="491.48" width="648.13" height="2.07"/>
  </g>
  <g id="freepik--Certification--inject-2">
    <path class="cls-5" d="m299.48,94.73h-67.33v-23.73c0-16.73,13.56-30.89,30.3-30.89l37.04.58v54.04Z"/>
    <path class="cls-1" d="m261,40.07s38.32-3.48,38.32,46.5v388.75h300.74V72.44c0-18.24-14.8-33.03-33.05-33.02-.02,0-.03,0-.05,0l-305.97.66Z"/>
    <path class="cls-10" d="m261,40.07l222.5-.72,53.88-.15,28.65-.09c10.17-.28,19.91,4.08,26.47,11.85,3.31,3.95,5.67,8.61,6.87,13.63.32,1.26.55,2.54.71,3.83.17,1.24.16,2.59.25,3.89v403.33h-301.36v-.3c0-134.59.09-248.88.12-329.48v-53.97c0-3.94,0-7.73-.22-11.36-.22-3.48-.7-6.94-1.44-10.36-.71-3.11-1.7-6.15-2.95-9.08-1.18-2.62-2.62-5.11-4.31-7.43-2.89-3.86-6.6-7.04-10.86-9.3-3.11-1.65-6.45-2.82-9.91-3.49-2.1-.43-4.23-.67-6.37-.72h-2.18c.73-.04,1.45-.04,2.18,0,2.15.04,4.28.26,6.39.67,3.46.66,6.8,1.83,9.91,3.47,4.29,2.26,8.03,5.44,10.94,9.31,1.7,2.32,3.17,4.81,4.36,7.43,1.26,2.94,2.26,6,2.99,9.12.75,3.42,1.24,6.9,1.46,10.39.27,3.64.24,7.43.24,11.37v53.97c0,80.65.06,194.94.11,329.48l-.3-.28h300.74l-.32.32V80.12c-.07-5.21.38-10.44-.93-15.4-1.13-4.89-3.36-9.45-6.53-13.34-6.44-7.65-16.02-11.95-26.01-11.68h-28.71l-53.97.09-222.4.28Z"/>
    <path class="cls-10" d="m428.05,158.05c0,.17-18.29.32-40.88.32s-40.88-.15-40.88-.32,18.28-.32,40.88-.32,40.88.17,40.88.32Z"/>
    <path class="cls-10" d="m446.36,167.81c0,.19-22.38.32-50,.32s-49.99-.14-49.99-.32,22.38-.32,49.99-.32,50,.15,50,.32Z"/>
    <path class="cls-10" d="m452.92,206.27c0,.17-23.11.32-51.63.32s-51.63-.15-51.63-.32,23.11-.32,51.63-.32,51.63.14,51.63.32Z"/>
    <path class="cls-10" d="m520.37,243.75c0,.17-38.65.32-86.31.32s-86.31-.15-86.31-.32,38.63-.32,86.31-.32,86.31.14,86.31.32Z"/>
    <path class="cls-10" d="m520.37,254.93c0,.19-38.65.32-86.31.32s-86.31-.14-86.31-.32,38.63-.32,86.31-.32,86.31.15,86.31.32Z"/>
    <path class="cls-10" d="m520.37,266.11c0,.19-38.65.32-86.31.32s-86.31-.14-86.31-.32,38.63-.32,86.31-.32,86.31.15,86.31.32Z"/>
    <path class="cls-10" d="m520.37,277.3c0,.17-38.65.32-86.31.32s-86.31-.15-86.31-.32,38.63-.32,86.31-.32,86.31.15,86.31.32Z"/>
    <path class="cls-10" d="m520.37,288.48c0,.17-38.65.32-86.31.32s-86.31-.15-86.31-.32,38.63-.32,86.31-.32,86.31.14,86.31.32Z"/>
    <path class="cls-10" d="m413.21,299.67c0,.17-14.67.32-32.74.32s-32.73-.15-32.73-.32,14.65-.32,32.73-.32,32.74.14,32.74.32Z"/>
    <path class="cls-10" d="m374.98,100.28c-.04-3.84,3.04-6.98,6.88-7.01.18,0,.37,0,.55.02,2.21-.12,4.35.8,5.78,2.48l-2.42,2.19c-.75-.99-1.93-1.57-3.17-1.57-2.12,0-3.84,1.72-3.84,3.84,0,2.12,1.72,3.83,3.84,3.84,1.24,0,2.42-.58,3.17-1.57l2.42,2.18c-1.43,1.7-3.57,2.64-5.78,2.54-3.83.27-7.15-2.62-7.42-6.45-.01-.16-.02-.32-.02-.48Z"/>
    <path class="cls-10" d="m400.63,104.06v2.94h-10.79v-13.44h10.54v2.94h-6.79v2.27h5.98v2.85h-5.98v2.48l7.04-.02Z"/>
    <path class="cls-10" d="m408.62,103.4h-2.07v3.57h-3.8v-13.41h6.19c3.72,0,5.97,1.9,5.97,4.95.07,1.82-.98,3.49-2.64,4.24l2.91,4.22h-4.08l-2.49-3.57Zm0-6.87h-2.11v3.94h2.11c1.57,0,2.37-.73,2.37-1.96s-.76-1.96-2.33-1.96l-.04-.02Z"/>
    <path class="cls-10" d="m419.62,96.57h-4.12v-3.01h12.04v3.01h-4.11v10.43h-3.8v-10.43Z"/>
    <path class="cls-10" d="m428.96,93.56h3.8v13.44h-3.8v-13.44Z"/>
    <path class="cls-10" d="m439.27,96.49v2.96h5.93v2.94h-5.93v4.61h-3.8v-13.44h10.54v2.94h-6.74Z"/>
    <path class="cls-10" d="m447.8,93.56h3.8v13.44h-3.8v-13.44Z"/>
    <path class="cls-10" d="m453.62,100.28c-.03-3.84,3.06-6.98,6.91-7.01.17,0,.35,0,.52.02,2.2-.12,4.34.8,5.77,2.48l-2.42,2.19c-.75-.99-1.93-1.57-3.17-1.57-2.12,0-3.84,1.72-3.84,3.84,0,2.12,1.72,3.83,3.84,3.84,1.24,0,2.42-.58,3.17-1.57l2.42,2.18c-1.42,1.7-3.56,2.64-5.77,2.54-4.3.06-7.43-2.84-7.43-6.92Z"/>
    <path class="cls-10" d="m477.25,104.38h-5.67l-1.07,2.61h-3.88l5.93-13.44h3.72l5.95,13.44h-3.95l-1.03-2.61Zm-1.1-2.8l-1.73-4.3-1.73,4.3h3.47Z"/>
    <path class="cls-10" d="m545.65,346.87c0,.17-17.14.32-38.27.32s-38.29-.15-38.29-.32,17.14-.32,38.29-.32,38.27.15,38.27.32Z"/>
    <path class="cls-10" d="m545.65,357.67c0,.17-17.14.32-38.27.32s-38.29-.15-38.29-.32,17.11-.35,38.3-.35,38.26.17,38.26.35Z"/>
    <path class="cls-2" d="m540.57,404.61c-.02-.18-.02-.36,0-.55,0-.38-.06-.9-.11-1.57,0-.35-.02-.73-.07-1.15,0-.43-.14-.89-.21-1.39-.15-1.15-.39-2.3-.71-3.42-.78-3.1-2.03-6.06-3.72-8.78-8.11-13.56-24.71-19.45-39.55-14.03-1.47.53-2.9,1.16-4.29,1.88-1.4.77-2.75,1.64-4.04,2.59-1.31.97-2.55,2.03-3.72,3.17-1.16,1.2-2.23,2.47-3.22,3.82-2.04,2.74-3.63,5.8-4.69,9.05-2.26,6.73-2.26,14.02,0,20.75,1.06,3.25,2.65,6.31,4.69,9.05.99,1.34,2.07,2.61,3.22,3.82,1.17,1.14,2.41,2.2,3.72,3.17,2.53,1.91,5.34,3.43,8.32,4.48,5.52,2,11.47,2.5,17.24,1.45,9.31-1.74,17.42-7.38,22.3-15.5,1.68-2.72,2.93-5.68,3.72-8.78.32-1.12.55-2.26.71-3.42.07-.5.16-.95.21-1.37s0-.82.07-1.16c0-.67.09-1.24.11-1.57-.02-.18-.02-.36,0-.53.02.18.02.36,0,.53v2.75c0,.42-.11.89-.19,1.4-.12,1.16-.34,2.31-.64,3.44-.74,3.14-1.96,6.14-3.62,8.91-8.13,13.83-24.98,19.89-40.06,14.42-1.5-.54-2.96-1.17-4.37-1.91-1.43-.78-2.81-1.66-4.11-2.64-1.34-.99-2.62-2.06-3.82-3.22-1.18-1.22-2.28-2.52-3.28-3.89-2.09-2.8-3.71-5.91-4.79-9.23-2.31-6.86-2.31-14.29,0-21.14,1.09-3.31,2.71-6.43,4.79-9.23,1.01-1.37,2.11-2.66,3.29-3.88,1.19-1.16,2.46-2.24,3.8-3.23,14.81-10.94,35.69-7.8,46.63,7.02.69.93,1.32,1.9,1.91,2.89,1.65,2.77,2.87,5.77,3.62,8.91.31,1.13.52,2.29.64,3.46.07.51.15.97.19,1.39s0,.82,0,1.18v1.57c.02.17.02.34.01.51Z"/>
    <circle class="cls-2" cx="507.36" cy="404.58" r="21.33"/>
    <path class="cls-10" d="m554.81,386.24l-.89.5-2.66,1.41-10.24,5.34-16.19,8.44c-1.65.86-3.43,1.43-5.26,1.68-2.02.25-4.06-.37-5.6-1.71-.81-.7-1.38-1.63-1.65-2.66-.31-1.1-.04-2.27.71-3.13.77-.85,1.84-1.36,2.99-1.44,1.23-.17,2.42.5,2.92,1.64v.09c.03,3.58-1.24,7.04-3.58,9.75-2.47,2.96-6.06,4.75-9.91,4.95-4.06.22-8.03-1.22-11.01-3.98-1.6-1.4-2.71-3.27-3.17-5.34-.21-1.09-.07-2.22.42-3.22.49-1.02,1.35-1.83,2.4-2.25,1.11-.43,2.36-.25,3.31.46.89.71,1.55,1.68,1.87,2.77.35,1.06.52,2.17.51,3.28.05.55.05,1.11,0,1.66-.03.56-.1,1.11-.21,1.66-.87,4.5-3.32,8.55-6.91,11.41-3.66,3.03-8.43,4.38-13.13,3.72-4.79-.8-9.1-3.42-12.01-7.31-1.7-2.18-2.88-4.72-3.44-7.43-.61-2.69-.4-5.5.61-8.08.54-1.29,1.47-2.38,2.65-3.12,1.2-.74,2.63-1.01,4.01-.76,1.37.31,2.54,1.22,3.17,2.48.6,1.17,1.05,2.42,1.31,3.72,1.16,5.01.84,10.24-.92,15.07-1.67,4.65-4.88,8.59-9.1,11.15-4.02,2.45-8.74,3.48-13.41,2.94-2.23-.27-4.39-.97-6.35-2.06-1.9-1.07-3.58-2.5-4.95-4.2-2.65-3.2-4.1-7.22-4.1-11.37.04-1.95.46-3.88,1.24-5.67.67-1.79,2.07-3.23,3.84-3.95.89-.28,1.84-.3,2.75-.07.85.28,1.63.75,2.27,1.37,1.19,1.2,2.09,2.67,2.61,4.29.54,1.49.82,3.06.83,4.64v2.25c0,.74-.06,1.46-.14,2.17-.46,4.87-1.88,9.59-4.17,13.91-1.44,2.72-3.22,5.25-5.3,7.52-.71.78-1.3,1.33-1.7,1.7s-.61.55-.61.55c0,0,.19-.21.57-.59s.94-.94,1.64-1.73c2.02-2.3,3.76-4.83,5.18-7.54,2.23-4.3,3.6-9,4.04-13.82.07-.71.11-1.42.12-2.16s0-1.47,0-2.23c-.02-1.54-.3-3.07-.83-4.52-.5-1.54-1.34-2.94-2.48-4.1-.59-.57-1.31-.99-2.09-1.24-.82-.2-1.67-.18-2.48.07-1.65.69-2.94,2.04-3.55,3.72-.72,1.74-1.1,3.59-1.13,5.47.02,4.03,1.44,7.93,4.01,11.04,2.7,3.38,6.64,5.55,10.94,6.02,4.55.52,9.14-.49,13.04-2.87,4.11-2.51,7.23-6.35,8.83-10.89,1.72-4.72,2.02-9.83.88-14.72-.25-1.24-.66-2.43-1.24-3.55-.55-1.11-1.56-1.91-2.76-2.19-1.23-.22-2.49.03-3.54.69-1.08.67-1.92,1.66-2.39,2.84-.96,2.44-1.16,5.12-.57,7.68.54,2.62,1.68,5.07,3.33,7.17,2.82,3.75,6.97,6.27,11.59,7.06,4.53.62,9.12-.7,12.63-3.63,3.47-2.76,5.85-6.67,6.69-11.02.2-1.05.28-2.12.25-3.2.02-1.05-.14-2.1-.47-3.1-.29-.97-.87-1.83-1.65-2.48-.79-.59-1.82-.73-2.74-.37-.91.38-1.65,1.07-2.08,1.96-.43.88-.56,1.88-.37,2.85.45,1.93,1.5,3.66,3,4.95,2.86,2.66,6.67,4.05,10.57,3.85,3.69-.19,7.13-1.92,9.5-4.76,2.27-2.61,3.51-5.95,3.49-9.4v.09c-.42-.96-1.44-1.51-2.48-1.33-1.01.06-1.96.5-2.65,1.24-.65.75-.89,1.77-.62,2.73.23.96.76,1.83,1.51,2.48,1.43,1.27,3.34,1.85,5.24,1.61,1.79-.24,3.53-.78,5.14-1.61l16.23-8.26,10.32-5.21,2.69-1.35.92-.38Z"/>
    <path class="cls-5" d="m443.86,80.67c0,.19-26.2.33-58.51.33s-58.53-.15-58.53-.33,26.2-.32,58.53-.32,58.51.15,58.51.32Z"/>
    <path class="cls-5" d="m463.37,80.67c-2.69.45-5.44.45-8.13,0,2.69-.43,5.43-.43,8.13,0Z"/>
    <path class="cls-5" d="m579.87,80.67c0,.19-23.91.33-53.37.33s-53.37-.15-53.37-.33,23.88-.32,53.37-.32,53.37.15,53.37.32Z"/>
    <path class="cls-5" d="m443.86,113.24c0,.19-26.2.32-58.51.32s-58.53-.14-58.53-.32,26.2-.32,58.53-.32,58.51.15,58.51.32Z"/>
    <path class="cls-5" d="m463.37,113.24c-2.69.43-5.43.43-8.13,0,2.69-.43,5.43-.43,8.13,0Z"/>
    <path class="cls-5" d="m579.87,113.24c0,.19-23.91.32-53.37.32s-53.37-.14-53.37-.32,23.88-.32,53.37-.32,53.37.15,53.37.32Z"/>
  </g>
  <g id="freepik--Label--inject-2">
    <path class="cls-2" d="m551.24,242.13l-30.71,71.36c-.4.91,0,1.97.91,2.37.47.21,1,.21,1.46,0l23.67-10.45c.91-.42,1.98-.02,2.4.89.03.07.06.13.08.2l7.99,23.97c.32.94,1.35,1.43,2.29,1.11.52-.18.93-.59,1.11-1.11l28.87-76.97-38.08-11.36Z"/>
    <path class="cls-2" d="m591.26,254.06l14.7,76.28c.19.98,1.14,1.62,2.12,1.43.49-.09.92-.39,1.19-.81l13.7-21.94c.53-.85,1.64-1.1,2.49-.58.05.03.09.06.13.09l20.08,15.35c.8.6,1.93.44,2.53-.36.32-.43.44-.98.32-1.5l-19.4-79.89-37.87,11.93Z"/>
    <g class="cls-6">
      <path d="m551.24,242.13l-30.71,71.36c-.4.91,0,1.97.91,2.37.47.21,1,.21,1.46,0l23.67-10.45c.91-.42,1.98-.02,2.4.89.03.07.06.13.08.2l7.99,23.97c.32.94,1.35,1.43,2.29,1.11.52-.18.93-.59,1.11-1.11l28.87-76.97-38.08-11.36Z"/>
    </g>
    <g class="cls-6">
      <path d="m591.26,254.06l14.7,76.28c.19.98,1.14,1.62,2.12,1.43.49-.09.92-.39,1.19-.81l13.7-21.94c.53-.85,1.64-1.1,2.49-.58.05.03.09.06.13.09l20.08,15.35c.8.6,1.93.44,2.53-.36.32-.43.44-.98.32-1.5l-19.4-79.89-37.87,11.93Z"/>
    </g>
    <polygon class="cls-2" points="592.74 117.1 602.82 109.7 610.75 119.37 622.36 114.71 627.62 126.06 640.03 124.42 642.3 136.72 654.72 138.22 653.87 150.71 665.53 155.24 661.6 167.12 671.76 174.43 665 184.96 673.03 194.54 663.85 203.07 669.25 214.35 658.25 220.32 660.67 232.59 648.53 235.64 647.81 248.13 635.3 248.07 631.5 259.98 619.4 256.81 612.75 267.4 601.82 261.32 592.74 269.93 583.68 261.32 572.75 267.4 566.1 256.81 554 259.98 550.19 248.07 537.68 248.13 536.97 235.64 524.83 232.59 527.24 220.32 516.24 214.35 521.63 203.07 512.47 194.54 520.49 184.96 513.74 174.43 523.9 167.12 519.96 155.24 531.63 150.71 530.77 138.22 543.2 136.72 545.46 124.42 557.87 126.06 563.14 114.71 574.74 119.37 582.66 109.7 592.74 117.1"/>
    <circle class="cls-1" cx="592.74" cy="189.81" r="56.67" transform="translate(39.39 474.73) rotate(-45)"/>
    <path class="cls-2" d="m605.1,176.38l15.2,2.23c1.67.24,2.82,1.79,2.58,3.45-.1.67-.41,1.28-.89,1.75l-11.01,10.71c-.72.7-1.05,1.71-.88,2.7l2.59,15.17c.28,1.66-.83,3.23-2.49,3.52-.66.11-1.34,0-1.93-.31l-13.63-7.17c-.89-.47-1.95-.47-2.84,0l-13.63,7.13c-1.49.78-3.33.2-4.11-1.3-.31-.59-.41-1.27-.3-1.92l2.61-15.14c.17-.99-.15-2-.87-2.7l-11-10.74c-1.21-1.17-1.23-3.1-.06-4.31.47-.48,1.09-.8,1.76-.89l15.21-2.19c.99-.14,1.85-.76,2.29-1.66l6.82-13.77c.75-1.51,2.57-2.13,4.08-1.38.6.3,1.08.78,1.38,1.38l6.78,13.8c.46.9,1.33,1.51,2.33,1.64Z"/>
  </g>
  <g id="freepik--Plant--inject-2">
    <path class="cls-10" d="m812.9,234.82s-14.76,60.48-80.87,46.62c0,0,19.16-61.25,80.87-46.62Z"/>
    <path class="cls-10" d="m780.99,326.42s-30.35,45.25-80.51,13.96c0,0,34.19-44.55,80.51-13.96Z"/>
    <path class="cls-10" d="m732.61,395.45s-44.27,37.64-86.71-9.02c.07,0,48.05-35.82,86.71,9.02Z"/>
    <path class="cls-10" d="m685.73,249.11s49.1,23.6,25.27,77.68c0,0-48.91-27.5-25.27-77.68Z"/>
    <path class="cls-10" d="m675.07,314.31s24.49,33.06-12.01,61.46c0,0-22.93-35.66,12.01-61.46Z"/>
    <path class="cls-10" d="m788.65,164.1s5.64,49.03-47.32,56.88c.02,0-2.59-50.81,47.32-56.88Z"/>
    <path class="cls-10" d="m712.71,114.55s42.82,17.89,24.23,68.13c0-.1-42.92-21.53-24.23-68.13Z"/>
    <path class="cls-10" d="m686.85,186.12s56.71,6.47,51.71,68.19c0,0-57.91-10.38-51.71-68.19Z"/>
    <path class="cls-10" d="m606.16,401.56s.24-.09.72-.22l2.12-.56c1.87-.5,4.63-1.15,8.13-2.29,9.87-3.05,19.41-7.08,28.49-12.01,13.47-7.36,25.91-16.48,36.99-27.11,6.55-6.26,12.65-12.96,18.27-20.07l4.26-5.72,2.14-2.89c.69-.99,1.33-2.02,2.01-3.03l4-6.19,3.72-6.47c.61-1.09,1.24-2.17,1.83-3.25s1.1-2.23,1.65-3.33c1.09-2.22,2.19-4.4,3.25-6.6s1.88-4.46,2.82-6.66c.46-1.1.95-2.19,1.37-3.29l1.24-3.34,2.37-6.59c.66-2.22,1.24-4.42,1.94-6.59.32-1.09.64-2.17.95-3.25s.53-2.17.81-3.25l1.5-6.39c3.24-15.01,4.65-30.36,4.22-45.71-.34-10.34-1.49-20.64-3.44-30.81-.78-3.59-1.46-6.35-1.87-8.24-.21-.93-.37-1.64-.48-2.14s-.14-.73-.14-.73c0,0,.07.24.2.72l.55,2.13c.46,1.87,1.24,4.63,1.99,8.21,5.17,25.32,5.02,51.43-.45,76.68-.5,2.11-1,4.24-1.5,6.42-.26,1.08-.47,2.18-.79,3.26s-.63,2.17-.95,3.26l-1.94,6.6-2.37,6.61c-.4,1.11-.79,2.23-1.24,3.36s-.92,2.2-1.39,3.32l-2.82,6.69c-1.05,2.2-2.17,4.4-3.25,6.61l-1.66,3.34c-.61,1.09-1.24,2.17-1.85,3.26l-3.72,6.49-4.03,6.19c-.68,1.02-1.31,2.04-2.02,3.03l-2.16,2.91-4.27,5.73c-5.62,7.14-11.73,13.87-18.29,20.14-11.12,10.65-23.62,19.76-37.16,27.09-9.14,4.91-18.75,8.88-28.69,11.85-3.51,1.1-6.29,1.72-8.18,2.17l-2.13.51-.76.14Z"/>
    <path class="cls-4" d="m669.76,340.96c.07.46.07.93,0,1.39-.07.88-.21,2.17-.4,3.72-.38,3.16-1.04,7.51-1.97,12.27-.93,4.77-1.97,9.05-2.8,12.11-.42,1.54-.77,2.77-1.04,3.63-.11.45-.27.89-.48,1.3.03-.46.11-.92.24-1.36.24-1,.52-2.23.84-3.72.72-3.08,1.68-7.37,2.61-12.13s1.65-9.08,2.14-12.21c.24-1.46.45-2.7.61-3.72.04-.44.12-.87.25-1.29Z"/>
    <path class="cls-4" d="m681.83,390.06c-.47.02-.93-.02-1.39-.12l-3.72-.56c-3.17-.47-7.57-1.09-12.39-1.66s-9.28-.98-12.47-1.24l-3.79-.33c-.47-.02-.93-.08-1.39-.2.46-.06.94-.06,1.4,0,.9,0,2.2,0,3.8.12,3.22.16,7.64.5,12.52,1.07s9.27,1.24,12.39,1.86c1.59.3,2.85.56,3.72.76.45.05.89.15,1.31.31Z"/>
    <path class="cls-4" d="m741.5,330.08c-.53.19-1.08.32-1.64.4l-4.48.88c-3.79.76-9,1.85-14.73,3.22-5.72,1.37-10.86,2.81-14.58,3.88l-4.4,1.24c-.53.18-1.07.32-1.62.4.49-.28,1.01-.49,1.55-.64,1.02-.37,2.48-.87,4.35-1.46,3.72-1.18,8.81-2.68,14.54-4.06s10.99-2.42,14.86-3.05c1.91-.32,3.46-.55,4.53-.68.53-.09,1.07-.13,1.61-.11Z"/>
    <path class="cls-4" d="m698.16,283.69c.38.47.72.97,1,1.5.63.99,1.46,2.48,2.42,4.3,4.97,9.69,8,20.26,8.94,31.11.17,2.07.25,3.72.25,4.95.06.6.06,1.21,0,1.81-.12-.59-.19-1.19-.2-1.8-.06-1.15-.21-2.82-.45-4.89-1.17-10.75-4.18-21.23-8.89-30.97-.9-1.87-1.66-3.36-2.22-4.38-.34-.52-.62-1.06-.85-1.63Z"/>
    <path class="cls-4" d="m763.94,255.48c-.4.35-.84.66-1.3.92l-3.64,2.37c-3.05,2.03-7.18,4.95-11.52,8.45s-8.05,6.96-10.66,9.53l-3.07,3.07c-.35.4-.74.76-1.16,1.08.28-.44.61-.86.98-1.24.67-.78,1.67-1.88,2.94-3.21,3.32-3.45,6.85-6.7,10.58-9.71,3.72-3.02,7.62-5.8,11.68-8.34,1.57-.97,2.85-1.71,3.72-2.2.46-.29.96-.53,1.47-.71Z"/>
    <path class="cls-4" d="m702.02,210.71c.17.1.33.22.47.36l1.24,1.11c1.08.98,2.61,2.48,4.46,4.25,3.72,3.64,8.67,8.83,13.82,14.86,5.15,6.03,9.49,11.77,12.5,16,1.5,2.12,2.69,3.85,3.48,5.07l.9,1.41c.2.33.3.51.27.52-.15-.13-.28-.28-.38-.45l-1-1.34-3.64-4.95c-3.1-4.16-7.43-9.83-12.62-15.85-5.19-6.02-10.03-11.26-13.63-14.98l-4.34-4.32-1.16-1.24c-.26-.28-.38-.43-.37-.46Z"/>
    <path class="cls-4" d="m770.31,180.03c-.37.55-.78,1.06-1.24,1.54l-3.44,4.06c-2.89,3.44-6.76,8.29-10.75,13.86s-7.31,10.81-9.64,14.67l-2.65,4.56c-.3.58-.65,1.13-1.05,1.65.23-.61.51-1.2.83-1.77.57-1.11,1.45-2.71,2.56-4.67,2.23-3.91,5.51-9.2,9.51-14.8s7.95-10.42,10.92-13.79c1.49-1.7,2.73-3.03,3.6-3.94.41-.49.85-.95,1.34-1.36Z"/>
    <path class="cls-4" d="m719.06,133.48c.34.58.64,1.19.89,1.81.53,1.16,1.24,2.87,2.18,4.95,1.8,4.24,4.17,10.16,6.61,16.76s4.48,12.63,5.88,17.03c.71,2.19,1.24,3.98,1.61,5.21.22.63.38,1.28.5,1.94-.3-.6-.55-1.23-.74-1.87l-1.8-5.15c-1.5-4.35-3.62-10.36-6.06-16.94-2.44-6.59-4.74-12.52-6.43-16.81-.82-2.07-1.49-3.72-1.99-5.09-.28-.59-.5-1.21-.66-1.85Z"/>
    <path class="cls-10" d="m71.25,221.36s13.96,57.15,76.42,44.06c-.04,0-18.15-57.88-76.42-44.06Z"/>
    <path class="cls-10" d="m101.4,307.92s28.67,42.76,76.05,13.19c0,0-32.3-42.1-76.05-13.19Z"/>
    <path class="cls-10" d="m147.08,373.14s41.84,35.59,81.91-8.51c0,0-45.37-33.86-81.91,8.51Z"/>
    <path class="cls-10" d="m191.4,234.86s-46.4,22.3-23.88,73.39c-.01,0,46.26-25.97,23.88-73.39Z"/>
    <path class="cls-10" d="m201.45,296.47s-23.14,31.24,11.35,58.08c0,0,21.68-33.69-11.35-58.08Z"/>
    <path class="cls-10" d="m94.14,154.52s-5.33,46.33,44.72,53.74c0,0,2.43-48.01-44.72-53.74Z"/>
    <path class="cls-10" d="m165.9,107.64s-40.48,16.91-22.9,64.41c0-.06,40.55-20.34,22.9-64.41Z"/>
    <path class="cls-10" d="m190.33,175.33s-53.6,6.12-48.88,64.41c0,.02,54.74-9.77,48.88-64.41Z"/>
    <path class="cls-10" d="m278.34,382.88l-.73-.14-2.12-.47c-1.86-.43-4.61-1.02-8.09-2.04-9.86-2.75-19.46-6.35-28.7-10.76-6.39-3.02-12.6-6.43-18.58-10.21-6.88-4.3-13.45-9.09-19.66-14.32-6.88-5.76-13.3-12.05-19.21-18.8l-4.51-5.44c-1.46-1.87-2.85-3.82-4.3-5.73-.72-.97-1.44-1.94-2.17-2.91l-1.99-3.03c-1.31-2.06-2.71-4.09-3.99-6.19-2.48-4.31-4.95-8.5-7-12.88-2.23-4.27-3.99-8.67-5.82-12.98-12.93-32.14-16.17-67.35-9.34-101.31.74-3.54,1.5-6.26,1.93-8.11.24-.9.41-1.61.53-2.11s.21-.71.21-.71c0,0,0,.25-.15.73s-.26,1.24-.47,2.11c-.4,1.87-1.11,4.6-1.82,8.14-1.89,10.04-2.96,20.21-3.21,30.42-.36,24.15,4.03,48.14,12.91,70.6,1.82,4.27,3.58,8.67,5.81,12.93,2.02,4.36,4.55,8.53,6.96,12.83,1.24,2.11,2.66,4.12,3.98,6.19l1.99,3.05,2.16,2.9c1.44,1.92,2.82,3.86,4.27,5.72l4.5,5.41c11.23,12.83,24.26,23.98,38.67,33.1,14.61,9.24,30.46,16.37,47.07,21.17,3.46,1.07,6.19,1.68,8.05,2.16l2.09.55.72.15Z"/>
    <path class="cls-4" d="m206.47,321.65c.14.4.23.82.28,1.24.16.97.35,2.13.57,3.51.47,2.96,1.16,7.05,2.03,11.54s1.78,8.53,2.48,11.46c.31,1.35.57,2.48.79,3.47.12.4.19.82.21,1.24-.2-.39-.35-.81-.46-1.24-.25-.79-.59-1.97-.99-3.42-.79-2.9-1.76-6.94-2.65-11.45s-1.49-8.67-1.85-11.61c-.19-1.49-.31-2.7-.37-3.54-.06-.4-.08-.8-.05-1.2Z"/>
    <path class="cls-4" d="m195.11,368.05c.4-.16.81-.28,1.24-.36.82-.19,2.03-.43,3.52-.72,2.99-.56,7.13-1.24,11.74-1.76s8.79-.85,11.83-.99c1.52-.07,2.75-.12,3.59-.12.44-.06.89-.06,1.33,0-.42.11-.86.18-1.3.19l-3.58.32c-3.02.26-7.2.66-11.79,1.24s-8.67,1.13-11.74,1.57l-3.55.51c-.42.1-.85.14-1.28.12Z"/>
    <path class="cls-4" d="m138.68,311.35c.53-.02,1.06.03,1.59.14,1.02.12,2.48.33,4.27.63,3.62.59,8.57,1.56,14,2.87s10.27,2.73,13.75,3.85c1.73.56,3.13,1.04,4.1,1.39.51.15,1,.35,1.46.61-.53-.06-1.05-.19-1.55-.37l-4.15-1.24c-3.51-1-8.36-2.34-13.77-3.65s-10.33-2.34-13.91-3.06l-4.24-.83c-.53-.06-1.04-.18-1.55-.33Z"/>
    <path class="cls-4" d="m179.64,267.54c-.2.53-.45,1.05-.74,1.54-.52.97-1.24,2.38-2.09,4.15-2.21,4.59-4.04,9.36-5.45,14.26-1.4,4.9-2.39,9.91-2.96,14.98-.21,1.94-.36,3.53-.42,4.62,0,.57-.07,1.14-.2,1.7-.07-.57-.09-1.14-.06-1.71,0-1.1.06-2.69.22-4.64.45-5.12,1.38-10.18,2.8-15.12,1.42-4.93,3.31-9.72,5.66-14.28.9-1.75,1.68-3.13,2.28-4.06.27-.51.59-.98.97-1.41Z"/>
    <path class="cls-4" d="m117.49,240.89c.47.17.92.39,1.35.66.85.46,2.07,1.16,3.55,2.08,3.84,2.39,7.53,5.02,11.05,7.87,3.51,2.85,6.85,5.92,9.98,9.18,1.24,1.24,2.14,2.29,2.77,3.03.35.38.66.8.93,1.24-.41-.3-.78-.64-1.11-1.03l-2.92-2.94c-2.48-2.48-5.97-5.67-10.07-9s-8.01-6.07-10.89-7.98l-3.43-2.25c-.44-.24-.84-.52-1.21-.85Z"/>
    <path class="cls-4" d="m176,198.57c-.44.56-.93,1.09-1.45,1.57l-4.08,4.15c-3.41,3.51-8.04,8.46-12.89,14.15s-8.99,11.05-11.93,14.99l-3.44,4.67c-.39.59-.83,1.15-1.31,1.67.32-.63.69-1.24,1.1-1.82.74-1.15,1.87-2.8,3.28-4.79,2.85-4.01,6.95-9.43,11.82-15.14s9.53-10.57,13.06-14.05c1.76-1.72,3.2-3.1,4.22-4.01.51-.5,1.05-.96,1.62-1.39Z"/>
    <path class="cls-4" d="m111.45,169.57c.48.37.93.79,1.34,1.24.83.85,1.99,2.12,3.39,3.72,3.67,4.19,7.11,8.56,10.33,13.1,3.72,5.29,6.89,10.29,8.99,13.98,1.05,1.85,1.87,3.36,2.48,4.42.31.54.57,1.1.78,1.68-.38-.49-.71-1.01-1-1.56l-2.59-4.31c-2.2-3.63-5.35-8.57-9.12-13.85s-7.43-9.85-10.16-13.1c-1.24-1.56-2.39-2.85-3.23-3.84-.46-.45-.86-.95-1.21-1.49Z"/>
    <path class="cls-4" d="m159.91,125.59c-.16.61-.36,1.22-.62,1.8-.48,1.24-1.11,2.86-1.88,4.81-1.59,4.05-3.72,9.66-6.07,15.89s-4.31,11.9-5.77,16.02c-.69,1.97-1.24,3.6-1.7,4.87-.18.61-.41,1.2-.71,1.76.1-.62.25-1.24.46-1.83.33-1.24.85-2.86,1.51-4.95,1.33-4.15,3.25-9.91,5.56-16.1s4.56-11.82,6.26-15.83c.85-2.01,1.56-3.62,2.07-4.73.24-.59.54-1.15.89-1.68Z"/>
  </g>
  <g id="freepik--Character--inject-2">
    <path class="cls-10" d="m278.27,183.92c9.03,1.18,10.37,10.43,13.71,18.2,3.34,7.77,9.75,14.68,14.68,21.63,2.6,3.72,6.19,6.97,7.09,11.33.98,4.56-1.1,9.28-2.08,13.92s-.28,10.33,4.17,12.39c-1.02,1.19-2.53,1.82-4.09,1.72,0,2.14-2.07,3.99-4.32,4.61-2.27.45-4.61.43-6.87-.07.61,1.42-.68,3.15-2.28,3.72-1.62.44-3.33.44-4.95,0-1.61-.46-3.3-.58-4.95-.36-3.72.81-5.88,4.95-9.6,5.47-5.1.74-8.77-5.78-13.81-4.64-2.37.53-3.94,2.6-5.88,4.01s-5.23,1.05-6.19-.98c-2.7,3.41-6.87,6.71-11.27,7.62.64-1.52.31-3.28-.85-4.46-2.41,1.97-5.31,3.25-8.39,3.72,1.87-1.72,2.9-4.17,2.8-6.71-2.1,1.65-4.84,2.24-7.43,1.6,4.53-2.59,4.95-8.61,3.37-13.13s-4.68-8.57-5.28-13.34c-.66-5.19,5.44-11.75,4.25-16.85-1.83-7.85-1.7-12.63-1.37-19.97.21-4.79,2.33-9.05,4.43-13.53,2.47-5.54,6.69-10.11,12.01-13.01,4.79-2.7,11.71-5.18,17.19-5.3,9.79-.21,13.76-.52,21.5,4.66"/>
    <path class="cls-10" d="m248.13,247.85c-3.21-6.24-5.88-12.75-7.96-19.45-2.09-6.73-2.47-13.88-1.11-20.8.24-1.03,2.48-8.08,3.54-8.11.76,0-.35,6.4.12,7.01,4.45,5.72,6.44,13.07,6.82,20.3.31,7.05-.16,14.11-1.41,21.06"/>
    <path class="cls-9" d="m290.91,307.19c-10.81,1.24-36.82-10.13-38.27-20.91l-8.77-64.86c-2.9-17.34,4.77-33.44,22.2-35.92l1.62-.14c16.34-1.31,30.95,10.15,33.55,26.33,2.48,15.05,4.95,31.7,5.49,39.83,1.14,16.83-15.47,20.8-15.47,20.8,0,0,.42,3.89,1.03,8.81,1.37,11.05-.38,23.16-1.37,26.01v.04Z"/>
    <path class="cls-7" d="m291.26,272.33c-7.77.6-15.56-1.03-22.43-4.72,0,0,6.29,12.23,22.95,9.36l-.52-4.64Z"/>
    <path class="cls-10" d="m294.97,226.34c.12,1.3-.82,2.45-2.12,2.6-1.25.21-2.43-.63-2.64-1.88,0-.03,0-.06-.01-.09-.12-1.3.82-2.45,2.12-2.6,1.24-.21,2.42.62,2.63,1.86,0,.04.01.07.02.11Z"/>
    <path class="cls-10" d="m298.25,219.4c-.27.33-2.19-.87-4.78-.66s-4.37,1.66-4.68,1.36.11-.72.89-1.37c1.05-.87,2.35-1.39,3.72-1.49,1.34-.12,2.69.2,3.84.9.84.55,1.15,1.09,1.02,1.25Z"/>
    <path class="cls-10" d="m270.67,228.23c.08,1.29-.84,2.43-2.12,2.61-1.26.2-2.44-.65-2.64-1.91,0-.02,0-.04,0-.06-.08-1.29.84-2.43,2.12-2.61,1.26-.2,2.45.67,2.65,1.93,0,.01,0,.02,0,.04Z"/>
    <path class="cls-10" d="m272.96,222.03c-.27.33-2.2-.85-4.78-.64s-4.38,1.66-4.68,1.36.1-.72.88-1.39c1.05-.87,2.35-1.38,3.72-1.47,1.35-.12,2.7.2,3.85.9.84.55,1.2,1.09,1.02,1.24Z"/>
    <path class="cls-10" d="m283.84,241.15c1.33-.54,2.72-.91,4.14-1.09.66-.12,1.24-.31,1.34-.77,0-.69-.2-1.36-.59-1.92l-2.35-4.87c-3.28-6.94-5.72-12.67-5.44-12.8s3.17,5.39,6.45,12.32l2.28,4.95c.48.76.67,1.67.55,2.56-.15.49-.52.87-1,1.05-.36.13-.73.21-1.11.25-1.4.28-2.83.38-4.25.3Z"/>
    <path class="cls-10" d="m271.91,212.4c-.3.68-2.86.19-5.92.37s-5.57.85-5.93.2c-.16-.31.31-.95,1.34-1.57,2.79-1.51,6.11-1.67,9.03-.43,1.14.51,1.67,1.09,1.49,1.44Z"/>
    <path class="cls-10" d="m297.16,213.41c-.48.63-2.64.22-5.18.43s-4.63.84-5.18.27c-.25-.27,0-.89.92-1.54,2.5-1.61,5.65-1.83,8.35-.58.94.52,1.3,1.1,1.09,1.41Z"/>
    <path class="cls-9" d="m246.24,233.77c-.3-.1-11.83-2.48-10.54,8.98,1.29,11.46,12.54,7.82,12.52,7.43s-1.98-16.41-1.98-16.41Z"/>
    <path class="cls-7" d="m244.24,246.28s-.19.16-.51.36c-.45.25-.98.32-1.49.2-1.24-.31-2.48-2.12-2.8-4.19-.14-.98-.05-1.98.25-2.92.13-.75.63-1.39,1.33-1.7.46-.18.98,0,1.24.41.2.31.15.55.21.56s.22-.22.07-.68c-.09-.28-.28-.52-.53-.67-.34-.2-.75-.27-1.14-.17-.93.3-1.64,1.07-1.88,2.02-.37,1.05-.49,2.17-.33,3.27.33,2.3,1.76,4.34,3.47,4.63.64.12,1.31-.07,1.8-.51.32-.32.36-.59.32-.61Z"/>
    <path class="cls-10" d="m291.52,193.6c1.73-1.24-4.56-6.59-9.36-8.1-7.27-2.29-18.02-2.94-24.17-.36-7.43,3.1-13.27,7.67-16.26,15.1-2.84,7.53-3.62,15.69-2.27,23.62.2,2.45,1.06,4.81,2.48,6.81,1.91,2.34,5.18,3.57,5.46,7.07.08,1.29.66,2.49,1.61,3.36,2.38,1.97,4.68-.43,5.61-2.68,1.97-4.79,1.6-10.19,1.24-15.36-.09-3.69-.78-7.35-2.06-10.81-.79-1.85-1.91-3.54-2.6-5.43-.81-1.86-.77-3.98.12-5.81.22-.36.48-.69.77-1,2.91-3.24,7.33-4.66,11.58-3.72,6.73,1.5,18.17,3.57,20.78,1.03,3.72-3.72,4.5-5.82,4.5-5.82l2.56,2.09Z"/>
    <path class="cls-10" d="m276.92,243.37c-.15,0-.17.68.17,1.65.48,1.27,1.34,2.36,2.48,3.11,1.09.72,2.3,1.24,3.58,1.52.95.22,1.57.25,1.62.1s-.47-.48-1.34-.9c-1.1-.49-2.16-1.07-3.17-1.72-2.3-1.47-2.99-3.85-3.34-3.75Z"/>
    <path class="cls-2" d="m246.61,235.27c.1.2.19.41.28.64,0,.02-.11-.24-.28-.64Z"/>
    <path class="cls-4" d="m242.69,233.46s1.92-2.48,3.93,1.76c-2.39-5.62-18.28-46.29,25.29-51.65,0,0-15.74-2.77-25.23,5.05,0,.05-19.3,11.58-3.99,44.84Z"/>
    <path class="cls-10" d="m326.01,438.8l-101.28,1.37s-28.33-11.85-36.11-12.18-23.24.67-30.38,12.18c-7.43,11.89-8.41,32.86,14.34,48.1,22.17,14.86,123.53,28.56,137.49,27.25l25.54-34.34s.27-28.18,0-29.53-4.56-13.41-4.56-13.41l-5.04.56Z"/>
    <path class="cls-2" d="m265.38,486.37l-52.48,19.48,23.92,65.43c6.11-2.68,6.28-41.1,6.28-41.1l34.14-11.15-11.85-32.66Z"/>
    <g class="cls-8">
      <path class="cls-1" d="m238.54,508.91c-.87-1.16-2.47-1.47-3.72-.73-1.21.83-1.55,2.48-.76,3.72.93,1.23,2.64,1.56,3.95.76,1.15-1,1.31-2.72.36-3.91"/>
    </g>
    <path class="cls-10" d="m212.9,505.85l5.3-1.96,21.06,63.58s-.2,3.38-2.38,3.8l-23.98-65.43Z"/>
    <path class="cls-10" d="m243.82,531.12c-.32.1-1.04-1.45-2.65-2.64s-3.25-1.55-3.23-1.88,2.04-.55,3.95.94,2.25,3.53,1.93,3.58Z"/>
    <path class="cls-10" d="m243.49,539.01c-.28.19-1.34-.99-3.08-1.59s-3.28-.38-3.39-.71,1.64-1.24,3.79-.41,2.99,2.59,2.69,2.7Z"/>
    <path class="cls-10" d="m236.71,545.91c-.17-.26,1.24-1.24,3.31-1.11s3.29,1.42,3.07,1.66-1.49-.35-3.17-.47-3.06.24-3.21-.07Z"/>
    <path class="cls-10" d="m251.32,527.71c-.35,0-.43-1.65-1.24-3.41s-1.87-2.96-1.66-3.23,1.85.67,2.74,2.76.47,3.95.16,3.88Z"/>
    <path class="cls-10" d="m258.52,523.3c-.14,0-.79-1.14-1.24-3.28-.22-1.26-.28-2.54-.2-3.82.05-.76.16-1.51.31-2.25.07-.43.21-.85.41-1.24.31-.6.99-.92,1.65-.77.57.16,1.03.58,1.24,1.13.15.4.25.81.28,1.24.24,2.05-.05,4.13-.83,6.04-.85,2.03-1.86,2.99-1.96,2.9s.57-1.24,1.16-3.18c.34-1.14.54-2.33.58-3.52.02-.7-.02-1.4-.11-2.09-.07-.76-.28-1.35-.66-1.41-.14,0-.19,0-.35.2-.14.3-.24.62-.3.94-.15.69-.27,1.38-.35,2.08-.11,1.2-.11,2.41,0,3.62.19,1.13.31,2.27.35,3.42Z"/>
    <path class="cls-10" d="m257.9,523.07c-.09-.09.83-1.14,2.85-2.02,1.18-.49,2.44-.79,3.72-.87.77-.04,1.53,0,2.29.11,1.01.04,1.93.6,2.42,1.49.22.6.05,1.26-.41,1.7-.32.31-.68.58-1.08.78-.69.38-1.43.65-2.2.81-1.29.27-2.63.22-3.9-.16-2.16-.66-3.02-1.85-2.92-1.92,1.02.44,2.06.81,3.12,1.11,1.15.22,2.33.18,3.47-.1.66-.16,1.28-.41,1.87-.74.66-.36,1.11-.83.95-1.07s-.84-.68-1.5-.74c-.68-.12-1.38-.18-2.07-.17-1.19.02-2.37.21-3.51.57-1.91.61-2.99,1.39-3.1,1.23Z"/>
    <path class="cls-2" d="m308.67,478.28l50.78,23.53-28.98,63.33c-5.88-3.13-3.03-41.46-3.03-41.46l-33.16-13.76,14.39-31.65Z"/>
    <g class="cls-8">
      <path class="cls-1" d="m333.65,502.87c.96-1.05,2.54-1.24,3.72-.43,1.11.92,1.32,2.55.46,3.72-1.02,1.15-2.74,1.34-3.99.45-1.06-1.1-1.06-2.84,0-3.94"/>
    </g>
    <path class="cls-10" d="m359.46,501.84l-5.13-2.38-25.92,61.73s-.06,3.39,2.07,3.98l28.98-63.33Z"/>
    <path class="cls-10" d="m326.64,524.54c.32.12,1.16-1.36,2.86-2.48s3.36-1.24,3.37-1.62-1.99-.69-4.01.63-2.53,3.47-2.22,3.47Z"/>
    <path class="cls-10" d="m326.41,532.48c.26.21,1.4-.89,3.2-1.34s3.31-.12,3.43-.43-1.52-1.31-3.72-.71-3.26,2.34-2.91,2.48Z"/>
    <path class="cls-10" d="m332.6,539.9c.2-.26-1.15-1.39-3.21-1.37s-3.39,1.16-3.2,1.41,1.51-.24,3.21-.22,3,.47,3.2.19Z"/>
    <path class="cls-10" d="m319.43,520.62c.35,0,.57-1.62,1.49-3.31s2.09-2.81,1.91-3.1-1.9.53-2.95,2.48-.76,3.96-.45,3.93Z"/>
    <path class="cls-10" d="m312.61,515.66c.14.06.88-1.07,1.44-3.17.32-1.24.49-2.51.51-3.79,0-.76-.04-1.51-.14-2.27-.03-.45-.14-.89-.31-1.3-.26-.62-.92-.99-1.59-.89-.58.12-1.07.5-1.33,1.03-.18.39-.31.81-.37,1.24-.15.75-.23,1.51-.24,2.28,0,1.29.19,2.57.58,3.8.26,1.16.86,2.23,1.72,3.05.17-.1-.47-1.24-.9-3.27-.25-1.17-.36-2.36-.31-3.55.04-.7.13-1.4.27-2.08.14-.74.4-1.33.77-1.36.15,0,.2,0,.32.24.12.31.19.63.22.95.11.7.17,1.41.2,2.12.03,1.21-.05,2.41-.24,3.6-.28,1.11-.48,2.24-.62,3.38Z"/>
    <path class="cls-10" d="m313.24,515.46c.1-.09-.73-1.24-2.68-2.24-1.16-.59-2.42-.98-3.72-1.15-.76-.1-1.53-.13-2.29-.07-.98-.03-1.91.43-2.48,1.24-.25.58-.14,1.26.27,1.73.29.33.64.62,1.02.85.66.44,1.38.77,2.14.98,1.26.37,2.6.42,3.89.15,2.22-.48,3.17-1.61,3.07-1.68-1.05.35-2.12.64-3.21.85-1.16.13-2.33.01-3.43-.36-.64-.21-1.25-.51-1.81-.89-.63-.41-1.05-.92-.87-1.13s.89-.62,1.54-.64c.69-.06,1.39-.06,2.08,0,1.19.11,2.35.39,3.46.83,1.88.83,2.89,1.68,3.01,1.54Z"/>
    <path class="cls-10" d="m331.05,438.26s43.74-16.34,59.84-14.22c9,1.24,23.08,8.05,24.15,19.6s-1.75,26.97-17.34,34.48c-15.59,7.52-77.69,35.39-92.44,39.64-14.75,4.25-51.56,14.34-51.56,14.34l-13.93-39.76s76.26-26.41,80.29-29.37c4.03-2.96,14.22-6.97,14.22-6.97l-3.22-17.74Z"/>
    <path class="cls-4" d="m179.01,443.68l.31-.09.88-.26c.77-.24,1.91-.57,3.41-.93,1.8-.44,3.63-.76,5.47-.95,2.45-.22,4.91-.22,7.36,0,2.97.25,5.91.81,8.76,1.67,1.59.47,3.13,1.07,4.62,1.8l4.76,2.33c6.55,3.12,13.85,6.33,21.64,9.4,15.58,6.19,30.55,9.22,41.21,11.63,5.35,1.24,9.69,2.16,12.66,2.87l3.44.81.89.21h.31l-.3-.1-.89-.25c-.77-.21-1.92-.53-3.41-.9-2.97-.76-7.28-1.78-12.63-3.01-10.65-2.48-25.58-5.52-41.11-11.74-7.78-3.07-15.07-6.26-21.63-9.36l-4.78-2.24c-1.51-.73-3.08-1.33-4.69-1.8-2.88-.86-5.84-1.41-8.83-1.64-2.47-.23-4.96-.23-7.43,0-1.86.22-3.69.56-5.5,1.04-1.49.38-2.63.74-3.38,1l-.87.32c-.09.05-.18.11-.26.19Z"/>
    <path class="cls-4" d="m181.3,437.91c0,.07,1.34-.16,3.48-.4,2.78-.29,5.59-.37,8.39-.24,2.8.15,5.59.52,8.34,1.1,2.11.45,3.39.82,3.41.74-.27-.15-.57-.27-.87-.35-.81-.28-1.64-.52-2.48-.72-5.51-1.38-11.23-1.67-16.85-.87-1.07.15-1.93.31-2.48.46-.32.05-.64.14-.94.26Z"/>
    <path class="cls-4" d="m349.46,449.83c0,.07,1.24-.87,3.36-2.17,5.47-3.39,11.61-5.56,18-6.35,2.48-.3,3.99-.33,3.98-.42-.36-.04-.72-.04-1.08,0-.98,0-1.96.04-2.94.14-6.48.63-12.71,2.82-18.15,6.4-1.03.69-1.85,1.24-2.38,1.73-.29.19-.55.42-.79.67Z"/>
    <path class="cls-4" d="m327.51,509.25l-.35.14-.99.42c-.88.35-2.16.95-3.86,1.61-3.41,1.35-8.45,3.21-14.86,5.33-12.92,4.22-31.5,9.6-53.72,15.2l.26.14c-4.15-11.49-8.67-24.19-13.53-37.53l-.14.3,16.72-6.87,92.66-38.14h0c3.78-3.99,7.25-7.51,10.5-10.36,2.75-2.44,5.69-4.65,8.79-6.63,1.95-1.23,3.96-2.35,6.03-3.37l1.62-.76.55-.27-.56.24-1.65.72c-2.09.98-4.12,2.08-6.08,3.29-3.13,1.96-6.09,4.16-8.87,6.59-3.28,2.84-6.78,6.34-10.57,10.32h0c-22.58,9.27-55.74,22.87-92.71,37.99l-16.75,6.89-.21.09.07.21c4.83,13.34,9.41,26.01,13.56,37.52l.06.17h.2c22.22-5.65,40.78-11.09,53.68-15.37,6.45-2.17,11.48-4.05,14.86-5.45,1.7-.67,2.97-1.3,3.84-1.67l.98-.46.43-.27Z"/>
    <path class="cls-2" d="m219.39,298.86s-12.58,7.26-15.14,15.78c-1.56,5.18-13.3,71.38-15.16,84.44s2.06,22.73,7.63,27.06,22.44,10.09,22.44,10.09l23.74,7.69,6.8-17.34-22.59-32.46,2.18-21.87-9.91-73.39Z"/>
    <path class="cls-2" d="m244.15,287.43l7.85-5.8s10.23,10.47,21.99,9.23,18.72-10.23,18.72-10.23l35.05,7.15h0c2.35.47,6.64,1.96,10.74,7.82,4.58,6.54,26.27,35.52,26.27,35.52h15.19c4.19,0,8.03,2.32,9.98,6.02,2.59,4.95,5.7,11.54,5.4,14.28-.52,4.62.37,17.34-5.82,21.28-1.97,1.24-9.02,5.03-14.47,4.78-8.06-.38-17.43-4.58-22.82-8.35-4.57-3.2-15.19-14.23-19.27-18.58v.06l-2.63,91.96-91.87-2.58-19.08-141.13s23.83-11.43,24.76-11.43Z"/>
    <path class="cls-10" d="m333.28,312.07c-.12,0-.36,11.4-.53,25.45s-.2,25.45-.06,25.45.37-11.38.53-25.45.2-25.45.06-25.45Z"/>
    <path class="cls-10" d="m208.27,386.4s.78.12,2.17.38c1.96.39,3.86,1,5.69,1.82,2.7,1.21,5.25,2.75,7.58,4.57,2.86,2.25,5.54,4.74,7.99,7.43,2.63,2.84,5.03,5.65,7.28,8.14,1.97,2.23,4.06,4.36,6.26,6.38,1.48,1.34,3.06,2.58,4.71,3.72.58.42,1.07.69,1.37.89.16.11.32.2.5.27-.13-.14-.28-.25-.45-.35-.3-.24-.76-.53-1.31-.97-1.61-1.2-3.14-2.49-4.6-3.86-1.85-1.72-3.93-3.91-6.19-6.42s-4.62-5.33-7.26-8.18c-2.47-2.7-5.18-5.19-8.08-7.43-2.37-1.83-4.96-3.35-7.7-4.53-1.85-.8-3.79-1.36-5.78-1.68-.54-.09-1.09-.15-1.64-.19-.18-.02-.36-.02-.53,0Z"/>
    <path class="cls-10" d="m206.19,380.17c0,.09,1.39.28,3.58.89,5.74,1.58,10.95,4.68,15.07,8.97,1.59,1.64,2.48,2.77,2.48,2.73-.14-.3-.32-.59-.53-.84-.52-.74-1.09-1.45-1.71-2.12-4.05-4.48-9.35-7.63-15.21-9.05-.88-.23-1.77-.39-2.68-.5-.33-.06-.67-.08-1-.07Z"/>
    <g class="cls-6">
      <path d="m377.19,364.03c-4.87,1.33-10.71-5.67-15.14-10.06-2.29-2.28-4.68-4.71-5.52-7.83-.61-2.63-.34-5.38.76-7.84.82-2.22,1.91-4.33,3.23-6.29-.4,3.78-1.34,9.57-.06,14.32,1.07,3.95,3.57,7.11,6.19,10.09s6.19,6.48,10.5,7.61"/>
    </g>
    <path class="cls-10" d="m356.43,360.03c.1,0-.47-1.61-.93-4.25-.26-1.54-.41-3.1-.45-4.67-.02-1.92.11-3.83.4-5.72.31-1.89.78-3.75,1.39-5.56.52-1.48,1.15-2.92,1.87-4.31,1.24-2.37,2.27-3.72,2.19-3.72-.29.27-.54.57-.76.9-.29.36-.55.73-.78,1.13-.34.5-.66,1.02-.95,1.56-.77,1.38-1.43,2.82-1.98,4.31-.65,1.83-1.13,3.72-1.45,5.64-.28,1.92-.4,3.87-.36,5.81.06,1.59.25,3.16.56,4.72.11.67.28,1.24.42,1.78.11.44.24.88.4,1.31.12.37.26.72.43,1.07Z"/>
    <path class="cls-10" d="m288.88,284.25c0,.12,1.02.76,2.14,1.76s1.94,1.96,1.94,1.87c-.8-1.76-2.3-3.11-4.14-3.72l.05.09Z"/>
    <path class="cls-10" d="m279.34,289.75c-.1.1.82,1.09,1.56,2.55s1.03,2.79,1.18,2.77c.05-1.05-.21-2.09-.76-2.99-.4-.97-1.09-1.78-1.98-2.34Z"/>
    <path class="cls-10" d="m262.94,295.51c.43-.88.78-1.8,1.05-2.74.41-.89.72-1.83.93-2.79-1.16,1.62-1.85,3.54-1.98,5.52Z"/>
    <path class="cls-10" d="m252.4,290.53c.14,0,.5-1.57,1.54-3.27s2.28-2.76,2.18-2.87c-1.1.6-2,1.52-2.58,2.64-.71,1.03-1.11,2.25-1.14,3.51Z"/>
    <path class="cls-10" d="m222.14,320.3c-.12,0,1.42,12.58,3.48,28.06,2.06,15.47,3.8,28.01,3.94,27.99s-1.42-12.58-3.48-28.06c-2.06-15.47-3.8-28.01-3.94-27.99Z"/>
    <path class="cls-10" d="m359.85,340.64c-.05.43-.05.87,0,1.3.03.51.09,1.01.19,1.51.06.3.11.61.16.94s.17.67.27,1.03c.44,1.71,1.05,3.37,1.81,4.95.95,1.93,2.08,3.77,3.37,5.49,1.33,1.7,2.83,3.25,4.5,4.62,1.37,1.11,2.89,2.02,4.51,2.71.35.15.67.3.99.41l.92.26.81.22c.25,0,.48.06.69.09.41.07.82.11,1.24.11-1.57-.31-3.1-.77-4.57-1.39-1.56-.73-3.03-1.65-4.36-2.75-1.62-1.37-3.1-2.9-4.4-4.58-1.28-1.69-2.4-3.49-3.36-5.38-.76-1.56-1.39-3.18-1.88-4.84-.73-2.89-.76-4.72-.88-4.71Z"/>
    <g class="cls-6">
      <path d="m225.1,445.75c-3.9-1.88-4.78-6.94-5.18-11.25-1.16-12.63-2.33-25.26-3.51-37.89-.55-5.95-.81-12.72,3.38-16.97,3.83-3.88,9.91-4.11,15.35-4.1,33.63.1,63.33,1.09,96.96,1.24l-1.71,58.84-105.3,10.13Z"/>
    </g>
    <path class="cls-5" d="m346.6,385.82l-3.58,68.24c-.14,2.63-2.32,4.69-4.95,4.68l-108.68.2c-2.64,0-4.82-2.07-4.95-4.71l-4.15-67.09c-.14-2.77,1.85-6.49,4.67-6.54h116.64c2.74-.03,4.98,2.16,5.01,4.9,0,.11,0,.21,0,.32Z"/>
    <path class="cls-10" d="m346.6,385.82c0-.08,0-.17,0-.25.02-.26.02-.51,0-.77-.26-1.76-1.45-3.25-3.11-3.89-.84-.31-1.73-.43-2.63-.37h-6.6l-42.11-.07-62.46-.06h-4.43c-.79-.04-1.57.17-2.24.58-.66.42-1.22.97-1.66,1.62-.89,1.3-1.36,2.83-1.36,4.4.09,1.52.19,3.06.27,4.6.37,6.19.77,12.39,1.15,18.79.79,12.77,1.61,26.01,2.48,39.53l.16,2.48c.07.85.06,1.67.21,2.56.36,1.76,1.59,3.21,3.27,3.84.82.28,1.69.4,2.55.35h26.94l36.89-.09,33.38-.07h9.59c.64,0,1.28-.02,1.92-.09,2.6-.36,4.53-2.61,4.47-5.24.06-1.24.12-2.35.19-3.52.12-2.33.24-4.6.35-6.81.9-17.75,1.64-32.12,2.13-42.11.25-4.95.43-8.81.56-11.43.06-1.3.11-2.29.14-2.97s0-1.02,0-1.02l-.07,1.02c0,.68-.1,1.67-.17,2.97-.15,2.63-.37,6.47-.64,11.43-.55,9.91-1.33,24.29-2.29,42.04-.11,2.22-.24,4.5-.36,6.81-.06,1.16-.12,2.34-.19,3.53.01,1.17-.39,2.32-1.14,3.22-.77.91-1.85,1.5-3.03,1.66-.61.04-1.22.04-1.83,0h-106.82c-.81.06-1.61-.05-2.38-.31-1.53-.58-2.66-1.9-2.99-3.51-.14-.77-.14-1.66-.2-2.48l-.16-2.48c-.84-13.54-1.66-26.75-2.48-39.53-.4-6.38-.79-12.66-1.24-18.79-.09-1.54-.19-3.06-.27-4.58-.01-1.47.42-2.91,1.24-4.14.73-1.26,2.09-2.03,3.54-2.01h66.89l42.11-.07h6.6c.88-.07,1.76.04,2.59.33.68.27,1.29.69,1.78,1.24.69.72,1.15,1.62,1.31,2.6.08.35.13.7.17,1.05Z"/>
    <path class="cls-1" d="m276.18,419.12c0,3.54,2.87,6.4,6.4,6.4s6.4-2.87,6.4-6.4c0-3.54-2.87-6.4-6.4-6.4-3.53,0-6.4,2.87-6.4,6.4Z"/>
    <path class="cls-10" d="m276.18,419.12c.06,0,0-.57.3-1.54.38-1.37,1.2-2.57,2.34-3.42,2.74-2.05,6.62-1.5,8.67,1.24.8,1.07,1.24,2.38,1.24,3.72,0,3.42-2.77,6.19-6.19,6.2-.37,0-.75-.03-1.12-.1-.95-.17-1.85-.56-2.63-1.14-1.14-.85-1.96-2.05-2.34-3.42-.26-.97-.24-1.54-.3-1.54-.02.14-.02.27,0,.41,0,.4.05.79.14,1.18.33,1.44,1.15,2.73,2.32,3.63.81.63,1.76,1.05,2.76,1.24,1.16.23,2.36.14,3.47-.26,1.24-.43,2.32-1.24,3.08-2.3,2.17-2.92,1.55-7.05-1.37-9.22-1.49-1.1-3.37-1.53-5.18-1.17-1.01.19-1.95.61-2.76,1.24-1.17.91-1.99,2.2-2.32,3.64-.09.39-.13.78-.14,1.18-.01.15,0,.3.02.45Z"/>
    <path class="cls-10" d="m342.94,393.4c-.14,0-.67,11.46-1.24,25.6s-.85,25.63-.72,25.63.66-11.46,1.24-25.6c.58-14.15.84-25.63.72-25.63Z"/>
    <path class="cls-9" d="m375.61,304.37c.63-.55-2.14-11.26-2.14-11.26,0,0,7.37-12.03,7.57-15.9s-2.91-11.84-2.91-11.84l-21.16-5.44s-6.79,12.62-8.15,17.08,2.37,19.62,2.37,19.62l3.58,7.77s10.78,8.51,20.85-.02Z"/>
    <path class="cls-9" d="m380.98,279.53c.83-1.52,1.57-3.09,2.23-4.69,1.34-3.18,2.99-6.29,0-8.08-.94-.62-2.1-.8-3.18-.5,0,0,.46-2.68-1.14-3.72-.94-.59-2.11-.69-3.13-.27,0,0,.5-3.72-1.8-5.36-1.76-1.16-4.03-1.23-5.86-.17,0,0,1.82-16.5,1.98-17.34.57-3.21-.61-6.04-3.8-5.25-1.18.28-1.82,1.52-3.2,6.9s-3.58,14.54-3.58,14.54c0,0-3.72,6.45-5.46,9.91s-5.23,11.47-5.51,13.63c-.76,5.46,2.48,12.7,2.48,12.7l22.48,1.24s6.64-11.97,7.49-13.53Z"/>
    <path class="cls-7" d="m379.58,266.97c-.64.78-1.22,1.61-1.73,2.48l-1.78,2.71c-.37.53-.69,1.1-.97,1.68-.32.67-.41,1.42-.26,2.14.13.77.67,1.41,1.41,1.67.68.17,1.4.08,2.02-.25.53-.27,1.03-.58,1.5-.93.45-.32.85-.62,1.24-.92.73-.57,1.3-1.05,1.67-1.4s.58-.56.56-.58-.93.66-2.48,1.72c-.85.64-1.75,1.21-2.69,1.71-.52.27-1.13.34-1.7.2-.58-.21-1.01-.71-1.1-1.33-.12-.63-.04-1.28.22-1.86.26-.57.56-1.12.92-1.64l1.68-2.76c.57-.84,1.07-1.73,1.49-2.66Z"/>
    <path class="cls-7" d="m361.09,268.94c.2-1.18.12-2.4-.24-3.54-.2-1.18-.68-2.29-1.4-3.25-.12.06.51,1.5.94,3.36s.61,3.43.69,3.43Z"/>
    <path class="cls-9" d="m352.23,273.75c2.07-2.01,4.68-3.38,7.52-3.93,2.82-.54,5.71-.65,8.57-.32,2.28.2,4.95.79,5.93,2.84s-.21,4.83-2.24,6.03c-2.13,1.06-4.55,1.43-6.9,1.05-2.33-.38-4.7-.48-7.06-.28"/>
    <path class="cls-7" d="m358.06,279.14h1.77c1.61.07,3.22.22,4.82.46,1.12.14,2.25.19,3.38.14,1.32-.04,2.61-.36,3.79-.95,1.32-.69,2.33-1.86,2.81-3.27.26-.75.31-1.56.16-2.34-.19-.8-.62-1.52-1.24-2.07-1.24-.97-2.75-1.56-4.32-1.68-1.42-.16-2.85-.25-4.27-.26-2.43-.05-4.84.32-7.15,1.09-1.55.52-3.01,1.31-4.3,2.32-.34.28-.67.57-.98.88-.21.22-.31.35-.3.36s.47-.43,1.39-1.1c1.31-.93,2.75-1.66,4.29-2.14,2.28-.7,4.66-1.02,7.05-.97,1.41.02,2.81.12,4.21.28,1.48.12,2.89.67,4.06,1.57.55.48.93,1.12,1.1,1.83.14.7.09,1.42-.15,2.09-.44,1.3-1.36,2.38-2.58,3.02-1.12.57-2.35.9-3.6.95-1.11.05-2.22.02-3.32-.09-1.61-.21-3.23-.32-4.86-.31-.44.02-.88.06-1.31.12-.31,0-.46.04-.46.06Z"/>
    <path class="cls-9" d="m379.42,267.23c-2.37,3.59-4.46,7.54-6.45,11.36-.47,1.16-1.25,2.18-2.25,2.94-.85.52-2.97-.43-3.91-.76l6.49-14.78"/>
    <path class="cls-7" d="m373.29,265.99c-.22.35-.41.72-.57,1.1l-1.44,3.1c-1.24,2.63-2.86,6.32-4.69,10.48l-.11.24.25.09c.74.3,1.5.55,2.27.77.32.08.66.13.99.15.18,0,.36-.01.53-.06.18-.04.34-.12.48-.24.52-.38.97-.85,1.31-1.4.67-1.05,1.14-2.11,1.67-3.07,1.02-1.97,1.94-3.72,2.76-5.19s1.49-2.64,1.97-3.44c.26-.4.5-.81.71-1.24-.33.38-.62.8-.87,1.24-.52.78-1.24,1.92-2.09,3.37s-1.82,3.2-2.86,5.15c-.55.97-1.04,2.04-1.67,3.02-.33.49-.75.91-1.24,1.24-.51.26-1.11.29-1.64.07-.76-.21-1.5-.46-2.23-.76l.14.32c1.83-4.19,3.43-7.89,4.56-10.55l1.3-3.16c.19-.39.35-.8.47-1.23Z"/>
    <path class="cls-9" d="m375.05,261.59c-2.09,5.24-4.18,10.47-6.27,15.71-.38,1.14-.95,2.21-1.68,3.16-.76.95-1.94,1.46-3.16,1.37-1.65-.43-2.79-1.93-2.77-3.63.05-1.65.45-3.28,1.16-4.77,1.88-4.77,3.38-9.68,4.5-14.69"/>
    <path class="cls-7" d="m366.83,258.74c-.07.15-.13.31-.16.47l-.37,1.39c-.32,1.24-.79,2.95-1.45,5.08s-1.52,4.64-2.6,7.43c-.66,1.42-1.1,2.94-1.31,4.5-.06.85.11,1.71.48,2.48.37.83,1.04,1.49,1.88,1.85.86.31,1.82.24,2.63-.21.76-.41,1.39-1.01,1.85-1.75.75-1.36,1.39-2.79,1.9-4.26,1.08-2.74,2.04-5.2,2.86-7.31l1.9-4.95c.2-.55.36-.99.48-1.35.07-.15.12-.32.15-.48-.1.14-.18.29-.24.45-.15.36-.35.79-.57,1.33l-2.01,4.86c-.84,2.09-1.85,4.55-2.95,7.27-.51,1.44-1.14,2.84-1.88,4.17-.41.66-.99,1.2-1.67,1.57-.68.39-1.5.46-2.24.2-.73-.32-1.31-.89-1.64-1.61-.34-.7-.49-1.49-.43-2.27.19-1.51.6-2.98,1.24-4.36,1.07-2.76,1.88-5.3,2.48-7.43s1.05-3.91,1.33-5.13c.12-.62.22-1.09.28-1.41.05-.17.07-.34.07-.51Z"/>
    <path class="cls-9" d="m389.46,342.77c-.57-2.08-14.86-44.36-14.86-44.36l-23.63-2.82,9.66,36.42s-1.5,9.25,0,14.73,13.63,20.38,19.82,16.8c6.19-3.58,9.57-18.68,9.02-20.76Z"/>
    <path class="cls-7" d="m360.57,291.85c.46.06.92,0,1.35-.17,2.15-.67,3.89-2.26,4.74-4.35.2-.41.3-.87.28-1.33-.59,1.38-1.43,2.64-2.48,3.72-1.16.95-2.48,1.67-3.9,2.13Z"/>
  </g>
  <path class="cls-10" d="m481.52,100.23c-.03-3.84,3.06-6.98,6.91-7.01.17,0,.35,0,.52.02,2.2-.12,4.34.8,5.77,2.48l-2.42,2.19c-.75-.99-1.93-1.57-3.17-1.57-2.12,0-3.84,1.72-3.84,3.84,0,2.12,1.72,3.83,3.84,3.84,1.24,0,2.42-.58,3.17-1.57l2.42,2.18c-1.42,1.7-3.56,2.64-5.77,2.54-4.3.06-7.43-2.84-7.43-6.92Z"/>
  <path class="cls-10" d="m496.62,93.5h3.8v13.44h-3.8v-13.44Z"/>
  <path class="cls-10" d="m502.44,100.23c0-4.04,3.17-7,7.43-7s7.43,2.96,7.43,7-3.17,6.99-7.43,6.99-7.43-2.96-7.43-6.99Zm11.15,0c-.12-2-1.83-3.53-3.83-3.41-2,.12-3.53,1.83-3.41,3.83.11,1.92,1.7,3.42,3.62,3.42,1.98,0,3.59-1.61,3.59-3.6,0-.08,0-.16,0-.24h.05Z"/>
  <path class="cls-10" d="m532.17,93.5v13.44h-3.13l-5.93-7.16v7.16h-3.72v-13.44h3.12l5.93,7.16v-7.16h3.73Z"/>
  <polygon class="cls-10" points="507.5 91.38 511.22 91.38 514.94 88.3 511.22 88.3 507.5 91.38"/>
</svg>